<?xml version="1.0" encoding="UTF-8"?>
<svg version="1.1" xmlns="http://www.w3.org/2000/svg" width="500" height="500">
<path d="M0 0 C0.78375 -0.01780518 1.5675 -0.03561035 2.375 -0.05395508 C10.71833649 -0.04256187 17.51945099 2.69540569 24.875 6.5 C25.90753906 7.02980469 26.94007813 7.55960937 28.00390625 8.10546875 C29.14666016 8.70294922 29.14666016 8.70294922 30.3125 9.3125 C30.3125 9.9725 30.3125 10.6325 30.3125 11.3125 C31.18068359 11.46332031 31.18068359 11.46332031 32.06640625 11.6171875 C38.77051526 13.69254646 43.73139176 20.60510875 47.3125 26.3125 C47.3125 26.9725 47.3125 27.6325 47.3125 28.3125 C48.3025 28.6425 49.2925 28.9725 50.3125 29.3125 C54.24852727 34.68853725 56.46813199 40.96967341 58.3125 47.3125 C58.9725 47.3125 59.6325 47.3125 60.3125 47.3125 C60.58513672 48.34697266 60.58513672 48.34697266 60.86328125 49.40234375 C62.29627982 54.7595538 63.84781983 60.03418127 65.62890625 65.28515625 C66.63701712 68.27492506 67.51158373 71.25900672 68.3125 74.3125 C68.57289063 75.29734375 68.83328125 76.2821875 69.1015625 77.296875 C71.32008846 86.46125328 71.64037785 94.96190958 71.3125 104.3125 C71.9725 103.9825 72.6325 103.6525 73.3125 103.3125 C75.63915026 103.21512036 77.96867648 103.18452646 80.29736328 103.18310547 C81.01632278 103.18135315 81.73528229 103.17960083 82.47602844 103.17779541 C84.86164744 103.17338174 87.24719269 103.17631503 89.6328125 103.1796875 C91.29230768 103.17901388 92.95180276 103.17804336 94.61129761 103.17678833 C98.09666886 103.17531165 101.58201453 103.17746331 105.06738281 103.18212891 C109.51918156 103.1877996 113.97091967 103.18456397 118.42271614 103.17855644 C121.85438486 103.17492726 125.28603942 103.17610067 128.71770859 103.17868423 C130.35783775 103.17934838 131.99796823 103.17854311 133.63809586 103.17620468 C135.94252115 103.17364239 138.24685125 103.17756986 140.55126953 103.18310547 C141.85983917 103.18390106 143.16840881 103.18469666 144.51663208 103.18551636 C151.93947759 103.43383373 157.90573616 103.80534532 163.3125 109.3125 C168.0217957 117.16132617 167.62114532 126.34526828 166.62890625 135.1875 C166.24973038 138.93244689 166.06438675 142.6794894 165.875 146.4375 C165.57594253 152.10457644 165.05800777 157.68780061 164.3125 163.3125 C163.19829235 171.80044017 162.9034344 180.29562921 162.65429688 188.84765625 C162.62271484 189.87246094 162.59113281 190.89726562 162.55859375 191.953125 C162.52270142 193.32259277 162.52270142 193.32259277 162.48608398 194.71972656 C162.3125 197.3125 162.3125 197.3125 161.82836914 199.72216797 C161.2036899 202.8588678 161.00679368 205.9247862 160.8125 209.1171875 C160.73 210.42300781 160.6475 211.72882813 160.5625 213.07421875 C160.47883021 214.44529201 160.39549957 215.81638601 160.3125 217.1875 C160.14910751 219.87262583 159.98178603 222.55741681 159.8125 225.2421875 C159.7403125 226.43054199 159.668125 227.61889648 159.59375 228.84326172 C159.30844692 232.36249501 158.82445725 235.82003128 158.3125 239.3125 C158.27286336 240.99953444 158.26861241 242.6880708 158.3125 244.375 C158.35809974 248.1597781 157.94818612 251.57784402 157.3125 255.3125 C157.29061378 256.77066909 157.29262677 258.22930208 157.3125 259.6875 C157.3521289 262.64480687 157.22670396 265.44680809 156.8125 268.375 C156.22851831 272.31233597 156.22851831 272.31233597 156.3125 276.3125 C156.3125 279.67159824 156.0554542 282.82143924 155.59570312 286.14257812 C155.2828288 288.53984279 155.0568165 290.93556142 154.84375 293.34375 C154.75746338 294.31223877 154.67117676 295.28072754 154.58227539 296.27856445 C154.49324951 297.27976318 154.40422363 298.28096191 154.3125 299.3125 C154.13435306 301.25392815 153.95596872 303.19533453 153.77734375 305.13671875 C153.60132985 307.0911249 153.42554922 309.04555206 153.25 311 C153.15912109 311.98033203 153.06824219 312.96066406 152.97460938 313.97070312 C152.59996048 318.17634828 152.25888637 322.33436391 152.30078125 326.55859375 C152.35190623 342.93563004 148.04171733 355.02008544 137.3125 367.3125 C129.53827042 374.730658 120.7478585 377.89174535 110.14216614 378.05342102 C108.70980266 378.09626896 108.70980266 378.09626896 107.24850255 378.13998252 C104.26978478 378.22086628 101.29201631 378.27162872 98.3125 378.3125 C96.9497166 378.33411969 96.9497166 378.33411969 95.55940223 378.35617614 C89.05206807 378.44994959 82.54573845 378.45963633 76.0378418 378.45776367 C73.91129499 378.46076612 71.78474871 378.46417109 69.65820312 378.46794128 C63.95866721 378.47666411 58.25914635 378.47911406 52.55960441 378.47975707 C48.99045201 378.48047302 45.42130333 378.48261727 41.85215187 378.48525429 C29.37970363 378.49446093 16.90726598 378.4985941 4.43481445 378.49780273 C-7.16480508 378.49719959 -18.76437847 378.50780959 -30.36398631 378.5235464 C-40.36109297 378.536623 -50.35818451 378.54198675 -60.35529965 378.54134732 C-66.31049973 378.54109286 -72.26565849 378.54391721 -78.22084999 378.55452538 C-83.80821668 378.56421116 -89.39550245 378.56428225 -94.98287201 378.55700874 C-97.02867183 378.5559643 -99.07447673 378.55831745 -101.12026787 378.5643692 C-103.9186369 378.57211024 -106.71672772 378.56743078 -109.51509094 378.55973816 C-110.31820452 378.56488172 -111.12131809 378.57002529 -111.94876844 378.57532471 C-123.77909181 378.50376231 -135.03859649 374.69112528 -143.6875 366.3125 C-145.3125 363.8125 -145.3125 363.8125 -146.6875 361.3125 C-147.22375 360.714375 -147.76 360.11625 -148.3125 359.5 C-150.37556354 356.21785345 -150.36728523 353.15507727 -150.6875 349.3125 C-151.3475 349.3125 -152.0075 349.3125 -152.6875 349.3125 C-154.42568679 341.06645908 -155.99550877 333.22256604 -155.73046875 324.75390625 C-155.67649352 321.68713191 -156.00499999 318.74648382 -156.39526367 315.70898438 C-157.6233102 305.63838725 -158.25595985 295.48224771 -159.04467773 285.36938477 C-159.18170972 283.62120857 -159.32038532 281.87316045 -159.46069336 280.12524414 C-160.84635412 262.85541617 -160.84635412 262.85541617 -160.71557617 255.19116211 C-160.6788604 252.73439798 -160.8411727 250.32104826 -161.0625 247.875 C-161.19591797 246.38419922 -161.19591797 246.38419922 -161.33203125 244.86328125 C-161.60778823 242.10874173 -161.89773899 239.35722661 -162.19921875 236.60546875 C-162.28961426 235.77394287 -162.38000977 234.94241699 -162.47314453 234.08569336 C-162.65326863 232.44408613 -162.83761539 230.80293487 -163.02685547 229.16235352 C-163.57893285 224.1733064 -163.7302558 219.33096166 -163.6875 214.3125 C-163.91763707 212.24126637 -164.14998346 210.17020604 -164.40234375 208.1015625 C-164.77157636 204.49016412 -164.98314062 200.87362095 -165.1875 197.25 C-165.22866943 196.52176025 -165.26983887 195.79352051 -165.31225586 195.04321289 C-165.39612 193.54690012 -165.47953079 192.05056188 -165.5625 190.55419922 C-166.13869259 180.2209953 -166.77415983 169.9413517 -168.1875 159.68359375 C-168.78128987 154.92337832 -168.9935578 150.16572831 -169.1875 145.375 C-169.40795658 140.04541518 -169.63013706 134.72620736 -170.078125 129.41015625 C-170.13806641 128.65275146 -170.19800781 127.89534668 -170.25976562 127.11499023 C-170.42686136 125.06783794 -170.61128194 123.02212079 -170.796875 120.9765625 C-170.64299869 115.82170615 -169.13762616 112.17694792 -165.9375 108.0625 C-160.45399996 103.79755552 -155.26652173 102.87162465 -148.45727539 102.97192383 C-147.66621399 102.97148575 -146.87515259 102.97104767 -146.06011963 102.97059631 C-143.46820636 102.97267172 -140.87695529 102.99594295 -138.28515625 103.01953125 C-136.47912448 103.02513166 -134.67308814 103.02939966 -132.86705017 103.03239441 C-128.13067885 103.04380815 -123.39458676 103.07324524 -118.6583252 103.10650635 C-113.81847917 103.13728228 -108.9785877 103.15091579 -104.13867188 103.16601562 C-94.65482573 103.19811845 -85.17118616 103.24927256 -75.6875 103.3125 C-75.63053955 102.01852295 -75.5735791 100.7245459 -75.51489258 99.39135742 C-75.43336415 97.67104892 -75.35156257 95.95075335 -75.26953125 94.23046875 C-75.23283325 93.38029175 -75.19613525 92.53011475 -75.1583252 91.6541748 C-74.81347819 84.60604552 -73.54658279 78.11835959 -71.6875 71.3125 C-71.13352591 69.11598764 -70.59069245 66.9168771 -70.0480957 64.7175293 C-69.27251968 61.57964197 -68.47996598 58.44615988 -67.6875 55.3125 C-67.0275 55.3125 -66.3675 55.3125 -65.6875 55.3125 C-65.50574219 54.15621094 -65.50574219 54.15621094 -65.3203125 52.9765625 C-65.15273437 51.97367188 -64.98515625 50.97078125 -64.8125 49.9375 C-64.65007812 48.93976563 -64.48765625 47.94203125 -64.3203125 46.9140625 C-63.6875 44.3125 -63.6875 44.3125 -61.6875 42.3125 C-61.0449765 40.24375966 -61.0449765 40.24375966 -60.6875 38.3125 C-60.0275 38.3125 -59.3675 38.3125 -58.6875 38.3125 C-58.58308594 37.58675781 -58.47867188 36.86101562 -58.37109375 36.11328125 C-57.62407973 33.05265809 -56.51201352 31.09778522 -54.75 28.5 C-54.22535156 27.70980469 -53.70070313 26.91960937 -53.16015625 26.10546875 C-52.67417969 25.51378906 -52.18820313 24.92210938 -51.6875 24.3125 C-51.0275 24.3125 -50.3675 24.3125 -49.6875 24.3125 C-49.31625 23.4771875 -49.31625 23.4771875 -48.9375 22.625 C-46.07378432 17.327126 -42.73022891 14.46361941 -37.58984375 11.5234375 C-35.65768971 10.3976482 -35.65768971 10.3976482 -34.25 8.82421875 C-25.54332262 0.40050839 -11.32884084 0.16407439 0 0 Z M-31.6875 32.3125 C-34.09270351 34.96925483 -34.09270351 34.96925483 -34.6875 38.3125 C-35.6775 38.6425 -36.6675 38.9725 -37.6875 39.3125 C-39.1319685 41.77729122 -40.40154198 44.1785958 -41.625 46.75 C-41.97836426 47.47848145 -42.33172852 48.20696289 -42.69580078 48.95751953 C-46.87232207 57.65169929 -50.06810233 65.77248404 -51.6875 75.3125 C-52.20836332 78.09182666 -52.79124031 80.62372092 -53.6875 83.3125 C-53.29352665 85.95054589 -53.29352665 85.95054589 -52.6875 88.3125 C-53.3475 88.3125 -54.0075 88.3125 -54.6875 88.3125 C-54.6875 93.2625 -54.6875 98.2125 -54.6875 103.3125 C-51.91204591 104.23765136 -50.27790463 104.43623984 -47.41645813 104.43275452 C-46.54567627 104.43412918 -45.67489441 104.43550385 -44.77772522 104.43692017 C-43.82538498 104.43332489 -42.87304474 104.42972961 -41.8918457 104.42602539 C-40.88678986 104.42617142 -39.88173401 104.42631744 -38.84622192 104.4264679 C-35.51855321 104.42577029 -32.19094021 104.41798494 -28.86328125 104.41015625 C-26.5582838 104.40829153 -24.25328595 104.40686788 -21.94828796 104.40586853 C-15.87705392 104.40204759 -9.80584374 104.39222089 -3.73461914 104.38116455 C2.45881833 104.37094135 8.65225965 104.36636896 14.84570312 104.36132812 C27.00131258 104.35059827 39.15690431 104.3335269 51.3125 104.3125 C51.31960921 102.88216873 51.324662 101.45182716 51.32885742 100.02148438 C51.33341194 98.82670471 51.33341194 98.82670471 51.33805847 97.60778809 C51.20982251 86.09150981 47.78270021 75.17310165 44.3125 64.3125 C43.87357422 62.91064453 43.87357422 62.91064453 43.42578125 61.48046875 C40.48937112 52.36050713 36.47549518 44.72517389 30.75 37 C30.35103516 36.45021484 29.95207031 35.90042969 29.54101562 35.33398438 C28.51481173 33.95486228 27.41856172 32.6284406 26.3125 31.3125 C25.6525 31.3125 24.9925 31.3125 24.3125 31.3125 C24.3125 30.6525 24.3125 29.9925 24.3125 29.3125 C22.36267465 27.90681196 20.35299422 26.5829964 18.3125 25.3125 C17.0440625 24.4771875 17.0440625 24.4771875 15.75 23.625 C13.20559331 22.25493486 11.17866665 21.62235585 8.3125 21.3125 C7.6525 21.6425 6.9925 21.9725 6.3125 22.3125 C6.3125 21.6525 6.3125 20.9925 6.3125 20.3125 C4.85432203 20.14447949 3.3959516 19.97812857 1.9375 19.8125 C0.71933594 19.67328125 0.71933594 19.67328125 -0.5234375 19.53125 C-11.8747485 18.38382506 -23.54993349 24.97922786 -31.6875 32.3125 Z M-25.875 155.625 C-26.48593506 155.90867432 -27.09687012 156.19234863 -27.72631836 156.48461914 C-32.72225314 158.98710617 -36.88119791 161.89359374 -38.6875 167.3125 C-39.3475 167.3125 -40.0075 167.3125 -40.6875 167.3125 C-40.6875 167.9725 -40.6875 168.6325 -40.6875 169.3125 C-41.3475 169.3125 -42.0075 169.3125 -42.6875 169.3125 C-43.02523437 169.98796875 -43.36296875 170.6634375 -43.7109375 171.359375 C-47.6875 179.3125 -47.6875 179.3125 -48.74267578 181.19995117 C-51.90576756 188.27236284 -50.89503751 199.84545979 -48.4140625 206.96875 C-46.9780894 209.57451583 -45.47881392 211.94109737 -43.6875 214.3125 C-43.0275 215.3025 -42.3675 216.2925 -41.6875 217.3125 C-41.0275 217.3125 -40.3675 217.3125 -39.6875 217.3125 C-39.45675781 217.89386719 -39.22601563 218.47523438 -38.98828125 219.07421875 C-34.10572221 227.47573927 -19.9763151 234.36079876 -10.96875 237.15625 C-8.8898846 237.61522028 -6.78926541 237.97350558 -4.6875 238.3125 C-3.6975 238.6425 -2.7075 238.9725 -1.6875 239.3125 C-1.0275 238.9825 -0.3675 238.6525 0.3125 238.3125 C0.3125 238.9725 0.3125 239.6325 0.3125 240.3125 C1.47007812 240.71082031 2.62765625 241.10914063 3.8203125 241.51953125 C5.35944888 242.05447499 6.89850727 242.58964315 8.4375 243.125 C9.57832031 243.51655273 9.57832031 243.51655273 10.7421875 243.91601562 C15.11079639 245.4412627 19.21667587 247.13323497 23.3125 249.3125 C23.98796875 249.663125 24.6634375 250.01375 25.359375 250.375 C28.54004757 252.12582894 30.26700012 253.24425017 32.3125 256.3125 C33.3025 256.3125 34.2925 256.3125 35.3125 256.3125 C35.3125 256.9725 35.3125 257.6325 35.3125 258.3125 C35.9725 258.3125 36.6325 258.3125 37.3125 258.3125 C37.56 258.828125 37.8075 259.34375 38.0625 259.875 C39.34104083 262.47269087 39.34104083 262.47269087 41.3125 265.375 C44.01115167 270.04729244 44.64335734 275.02385443 45.3125 280.3125 C45.5290625 281.8284375 45.5290625 281.8284375 45.75 283.375 C44.83252719 289.5351746 41.68138112 294.96924282 37.3125 299.3125 C37.3125 299.9725 37.3125 300.6325 37.3125 301.3125 C36.1678125 301.7146875 36.1678125 301.7146875 35 302.125 C32.35284635 303.09160254 32.35284635 303.09160254 30.953125 304.7265625 C24.72504446 310.74704035 15.34980645 311.85808855 7.125 312.6875 C6.29427979 312.77201416 5.46355957 312.85652832 4.60766602 312.94360352 C-3.95125375 313.65536223 -11.34651282 312.70348826 -19.4375 309.875 C-20.07042969 309.65779297 -20.70335937 309.44058594 -21.35546875 309.21679688 C-27.04779179 307.24637736 -32.39630386 305.00986035 -37.72265625 302.21484375 C-39.67122574 301.2278367 -39.67122574 301.2278367 -41.87109375 300.87890625 C-42.77021484 300.59853516 -42.77021484 300.59853516 -43.6875 300.3125 C-44.0175 299.3225 -44.3475 298.3325 -44.6875 297.3125 C-47.65328836 296.14736886 -50.53313636 296.22487879 -53.6875 296.3125 C-54.99264736 298.53026622 -54.99264736 298.53026622 -55.6875 301.3125 C-54.69469496 304.13387181 -54.69469496 304.13387181 -52.6875 306.3125 C-50.60216367 307.19072312 -50.60216367 307.19072312 -48.6875 307.3125 C-48.6875 307.9725 -48.6875 308.6325 -48.6875 309.3125 C-45.16357311 311.93495722 -41.76506467 313.7442059 -37.6875 315.3125 C-37.00945312 315.77269531 -36.33140625 316.23289062 -35.6328125 316.70703125 C-31.62853222 318.88973575 -27.53356759 319.84962803 -23.125 320.9375 C-22.27486328 321.1540625 -21.42472656 321.370625 -20.54882812 321.59375 C-18.26357372 322.17447347 -15.97619906 322.74553342 -13.6875 323.3125 C-13.0574707 323.4971582 -12.42744141 323.68181641 -11.77832031 323.87207031 C-9.10694117 324.43479427 -6.59304041 324.44229405 -3.86328125 324.4453125 C-2.19749023 324.44724609 -2.19749023 324.44724609 -0.49804688 324.44921875 C0.65630859 324.44535156 1.81066406 324.44148437 3 324.4375 C4.16595703 324.44136719 5.33191406 324.44523438 6.53320312 324.44921875 C8.19319336 324.44728516 8.19319336 324.44728516 9.88671875 324.4453125 C10.90338623 324.44418457 11.92005371 324.44305664 12.9675293 324.44189453 C15.27106639 324.57629165 15.27106639 324.57629165 16.3125 323.3125 C17.74517304 323.03617732 19.18413335 322.79230329 20.625 322.5625 C32.97297719 320.14582446 43.41900024 314.69410616 51.1875 304.6875 C58.14057358 293.97557226 58.91825872 279.73544069 56.80859375 267.35546875 C53.94068022 256.68683042 48.13867347 250.66576645 39.3125 244.3125 C38.51972656 243.74144531 37.72695313 243.17039062 36.91015625 242.58203125 C32.51767666 239.54108384 28.27144672 237.27736568 23.3125 235.3125 C22.3225 234.796875 21.3325 234.28125 20.3125 233.75 C17.02345187 232.17399777 13.8312818 231.26674591 10.3125 230.3125 C4.30964195 228.54844658 -1.46487064 226.24152997 -7.25 223.875 C-7.95817871 223.58665283 -8.66635742 223.29830566 -9.39599609 223.0012207 C-16.78737192 219.94245468 -23.17687397 217.26993355 -28.6875 211.3125 C-29.533125 210.755625 -30.37875 210.19875 -31.25 209.625 C-36.13084347 204.9944562 -37.90503422 198.68147021 -38.125 192.0625 C-37.95967755 187.84347103 -36.79254234 184.99632409 -34.6875 181.3125 C-34.6875 179.9925 -34.6875 178.6725 -34.6875 177.3125 C-34.0275 177.3125 -33.3675 177.3125 -32.6875 177.3125 C-32.44 176.52875 -32.1925 175.745 -31.9375 174.9375 C-30.53360901 171.98932892 -29.68074263 171.4100223 -26.6875 170.3125 C-26.6875 169.6525 -26.6875 168.9925 -26.6875 168.3125 C-25.841875 168.044375 -24.99625 167.77625 -24.125 167.5 C-20.64447653 166.35783465 -20.64447653 166.35783465 -17.25 164.75 C-13.61815991 163.28452066 -10.56756586 162.72822134 -6.6875 162.3125 C-5.61242187 162.12429687 -4.53734375 161.93609375 -3.4296875 161.7421875 C10.17229758 160.18037293 23.28697615 165.38026437 35.2578125 171.26953125 C39.01829832 173.0520992 41.31384955 173.64538348 45.3125 172.3125 C46.2488921 169.01304409 46.2488921 169.01304409 46.3125 165.3125 C42.88132271 161.43859016 37.93657817 159.50043361 33.3125 157.3125 C32.28576172 156.76335937 32.28576172 156.76335937 31.23828125 156.203125 C28.83152617 155.0900618 26.93256527 155.16694082 24.3125 155.3125 C24.3125 154.6525 24.3125 153.9925 24.3125 153.3125 C21.10529138 152.8051043 17.89657837 152.307921 14.6875 151.8125 C13.78386719 151.66941406 12.88023437 151.52632812 11.94921875 151.37890625 C-0.97158056 149.39834577 -13.92774311 150.04901661 -25.875 155.625 Z " fill="#F0582C" transform="translate(251.6875,69.6875)"/>
<path d="M0 0 C4.29557635 0.6711838 10.80437318 1.80437318 14 5 C17.09369398 5.2524849 20.16191791 5.42932655 23.26196289 5.55639648 C24.27450418 5.59857772 25.28704546 5.64075895 26.33026981 5.68421841 C41.29232289 6.23416675 56.26720365 6.12690785 71.23685718 6.10139394 C75.60362762 6.0950474 79.97039912 6.09454783 84.33717346 6.09336853 C92.56708482 6.09028796 100.79698254 6.08211976 109.02688795 6.07201904 C118.41297241 6.06075488 127.7990576 6.05532176 137.18514717 6.05032361 C156.45677245 6.03993354 175.72838512 6.02239906 195 6 C195 6.99 195 7.98 195 9 C172.33828004 9.04675302 149.67656804 9.08200504 127.01480961 9.10362434 C116.49219715 9.11393006 105.96961469 9.12797695 95.44702148 9.15087891 C86.27386865 9.17083432 77.10073754 9.18372156 67.92756361 9.18817699 C63.07196738 9.19078072 58.21643329 9.19688599 53.36085701 9.21146011 C48.7866222 9.22507799 44.2124749 9.22921414 39.63822174 9.22621536 C37.96332511 9.22676365 36.28842542 9.23071596 34.61354637 9.23841095 C14.30092893 9.32712318 14.30092893 9.32712318 4.9375 3.875 C3.99777344 3.33617187 3.05804688 2.79734375 2.08984375 2.2421875 C1.40019531 1.83226562 0.71054688 1.42234375 0 1 C0 0.67 0 0.34 0 0 Z " fill="#D77D62" transform="translate(113,439)"/>
<path d="M0 0 C1.95703125 1.33984375 1.95703125 1.33984375 4 4 C4.63575446 7.50921234 4.65144514 11.00268353 4.6875 14.5625 C4.72960364 16.45971558 4.77503117 18.35686111 4.82421875 20.25390625 C4.83541748 21.09252197 4.84661621 21.9311377 4.8581543 22.79516602 C4.91739184 25.17662341 4.91739184 25.17662341 6 28 C6.0833804 30.13794525 6.10733747 32.27842009 6.09765625 34.41796875 C6.09443359 35.67158203 6.09121094 36.92519531 6.08789062 38.21679688 C6.07951172 39.52712891 6.07113281 40.83746094 6.0625 42.1875 C6.05748317 43.52278481 6.05292059 44.85807141 6.04882812 46.19335938 C6.03702695 49.46228473 6.02056297 52.73111991 6 56 C6.66 56 7.32 56 8 56 C8.03867188 57.87945312 8.03867188 57.87945312 8.078125 59.796875 C8.13441169 61.44795123 8.1917589 63.09899155 8.25 64.75 C8.26417969 65.575 8.27835938 66.4 8.29296875 67.25 C8.46710812 72.3111287 8.46710812 72.3111287 11.046875 76.578125 C11.69140625 77.04734375 12.3359375 77.5165625 13 78 C12.34 78 11.68 78 11 78 C10.67 90.87 10.34 103.74 10 117 C9.67 117 9.34 117 9 117 C8.95101562 116.21882813 8.90203125 115.43765625 8.8515625 114.6328125 C8.29134946 105.95916921 7.6591422 97.2916804 7 88.625 C6.9170166 87.52043457 6.8340332 86.41586914 6.74853516 85.27783203 C6.38153856 80.49534006 5.99051666 75.72583805 5.4375 70.9609375 C4.99294956 66.9361683 5 63.0461595 5 59 C4.76986293 56.92876637 4.53751654 54.85770604 4.28515625 52.7890625 C3.91592364 49.17766412 3.70435938 45.56112095 3.5 41.9375 C3.45883057 41.20926025 3.41766113 40.48102051 3.37524414 39.73071289 C3.29138 38.23440012 3.20796921 36.73806188 3.125 35.24169922 C2.3908464 21.59309155 2.3908464 21.59309155 1 8 C0.90589844 7.23558594 0.81179687 6.47117188 0.71484375 5.68359375 C0.48084443 3.78852886 0.24107714 1.89417751 0 0 Z " fill="#DA7153" transform="translate(83,225)"/>
<path d="M0 0 C3.9741643 1.28891815 5.7666157 2.4797904 8 6 C10.65880042 13.8814441 9.91586451 21.83438841 9.16894531 29.97460938 C8.93918763 32.72904546 8.80589511 35.48523976 8.66918945 38.24560547 C8.35372284 44.54194364 7.82474114 50.75036192 7 57 C5.88631241 65.48805039 5.59093658 73.98305467 5.34179688 82.53515625 C5.29442383 84.07236328 5.29442383 84.07236328 5.24609375 85.640625 C5.22216553 86.55360352 5.1982373 87.46658203 5.17358398 88.40722656 C4.99907848 91.01376448 4.57006393 93.45323582 4 96 C1.8769919 92.81548785 1.75115756 92.01526637 1.76953125 88.3671875 C1.77146484 87.47902344 1.77339844 86.59085937 1.77539062 85.67578125 C1.78763672 84.75152344 1.79988281 83.82726562 1.8125 82.875 C1.81314453 81.94300781 1.81378906 81.01101563 1.81445312 80.05078125 C1.85971841 73.14028159 1.85971841 73.14028159 3 72 C3.21168488 69.75378824 3.36915709 67.50236718 3.5 65.25 C3.89702042 58.4722943 3.89702042 58.4722943 4.50219727 55.69677734 C5.08387552 52.54561598 5.18004092 49.5398335 5.24609375 46.3359375 C5.27896484 45.04816406 5.31183594 43.76039063 5.34570312 42.43359375 C5.40814826 39.75136501 5.4637193 37.06915119 5.51757812 34.38671875 C5.71930633 26.73627155 6.32634102 19.47522029 8 12 C7.34 12 6.68 12 6 12 C6 10.02 6 8.04 6 6 C5.01 6 4.02 6 3 6 C3 5.01 3 4.02 3 3 C2.34 3 1.68 3 1 3 C0.67 2.01 0.34 1.02 0 0 Z " fill="#DE775B" transform="translate(409,176)"/>
<path d="M0 0 C4.29557635 0.6711838 10.80437318 1.80437318 14 5 C17.11177005 5.2529431 20.19833389 5.43068461 23.31640625 5.55859375 C24.82709435 5.62197182 24.82709435 5.62197182 26.36830139 5.68663025 C41.09400428 6.23059933 55.83194187 6.11113966 70.56506348 6.06866455 C74.57527117 6.05824441 78.58548566 6.05382784 82.59570312 6.04882812 C90.3971533 6.03825602 98.19857092 6.02129915 106 6 C106 6.33 106 6.66 106 7 C97.09 7 88.18 7 79 7 C79 7.66 79 8.32 79 9 C71.46282387 9.04654565 63.92566285 9.08198136 56.38837528 9.10362434 C52.88768971 9.11401714 49.38710319 9.1280929 45.88647461 9.15087891 C41.85269269 9.17696796 37.81901322 9.18650998 33.78515625 9.1953125 C32.54105484 9.20563507 31.29695343 9.21595764 30.01515198 9.22659302 C20.84777757 9.22776607 13.0291695 8.58660502 4.9375 3.875 C3.99777344 3.33617187 3.05804688 2.79734375 2.08984375 2.2421875 C1.40019531 1.83226562 0.71054688 1.42234375 0 1 C0 0.67 0 0.34 0 0 Z " fill="#D96F4E" transform="translate(113,439)"/>
<path d="M0 0 C0.66 0 1.32 0 2 0 C2.1963696 2.37456165 2.38231294 4.74920019 2.5625 7.125 C2.61857422 7.79015625 2.67464844 8.4553125 2.73242188 9.140625 C3.03762432 13.29137832 2.77275767 16.92441879 2 21 C1.9599235 22.45778256 1.95664866 23.91731115 2 25.375 C2.0396289 28.33230687 1.91420396 31.13430809 1.5 34.0625 C0.91601831 37.99983597 0.91601831 37.99983597 1 42 C1 45.35909824 0.7429542 48.50893924 0.28320312 51.83007812 C-0.0296712 54.22734279 -0.2556835 56.62306142 -0.46875 59.03125 C-0.55503662 59.99973877 -0.64132324 60.96822754 -0.73022461 61.96606445 C-0.81925049 62.96726318 -0.90827637 63.96846191 -1 65 C-1.17814694 66.94142815 -1.35653128 68.88283453 -1.53515625 70.82421875 C-1.71117015 72.7786249 -1.88695078 74.73305206 -2.0625 76.6875 C-2.15337891 77.66783203 -2.24425781 78.64816406 -2.33789062 79.65820312 C-2.71167695 83.85416544 -3.05317434 88.00036887 -3.00390625 92.21484375 C-2.99977479 96.21823149 -3.35593026 99.90611294 -3.875 103.875 C-4.11863281 105.82019531 -4.11863281 105.82019531 -4.3671875 107.8046875 C-5 111 -5 111 -7 113 C-6.94465088 112.26177002 -6.88930176 111.52354004 -6.83227539 110.76293945 C-5.6716257 95.18173059 -4.64203496 79.61158694 -4 64 C-3.34 64 -2.68 64 -2 64 C-2.00523682 63.00556885 -2.01047363 62.0111377 -2.01586914 60.98657227 C-2.03392041 57.30966079 -2.04543246 53.63275325 -2.05493164 49.95581055 C-2.05997157 48.36205386 -2.0668035 46.76830181 -2.07543945 45.17456055 C-2.08751999 42.88849747 -2.09323155 40.60249533 -2.09765625 38.31640625 C-2.10281754 37.59973282 -2.10797882 36.88305939 -2.11329651 36.14466858 C-2.11349263 34.42936328 -2.06192007 32.71418734 -2 31 C-1.67 30.67 -1.34 30.34 -1 30 C-0.84126045 27.78312006 -0.74866163 25.56144702 -0.68359375 23.33984375 C-0.66281265 22.67537735 -0.64203156 22.01091095 -0.62062073 21.3263092 C-0.55506342 19.19681457 -0.49621215 17.06719332 -0.4375 14.9375 C-0.39432061 13.49673153 -0.35070651 12.05597601 -0.30664062 10.61523438 C-0.19937607 7.0769596 -0.09812629 3.53854131 0 0 Z " fill="#E48A6F" transform="translate(407,304)"/>
<path d="M0 0 C0.78375 -0.01780518 1.5675 -0.03561035 2.375 -0.05395508 C10.27662142 -0.04316505 16.90717555 2.36888021 23.875 6 C24.72191406 6.43699219 25.56882812 6.87398438 26.44140625 7.32421875 C27.36759766 7.81341797 27.36759766 7.81341797 28.3125 8.3125 C28.3125 8.6425 28.3125 8.9725 28.3125 9.3125 C26.6625 9.3125 25.0125 9.3125 23.3125 9.3125 C23.3125 8.6525 23.3125 7.9925 23.3125 7.3125 C22.3225 7.3125 21.3325 7.3125 20.3125 7.3125 C20.3125 6.6525 20.3125 5.9925 20.3125 5.3125 C17.98051784 4.96518351 15.64838075 4.63191811 13.3125 4.3125 C12.66603516 4.22291016 12.01957031 4.13332031 11.35351562 4.04101562 C5.13797694 3.26187647 -0.99215298 3.19616015 -7.25 3.25 C-8.76303711 3.25676758 -8.76303711 3.25676758 -10.30664062 3.26367188 C-12.76699147 3.27533231 -15.22721239 3.29169622 -17.6875 3.3125 C-18.3475 4.6325 -19.0075 5.9525 -19.6875 7.3125 C-21.0075 6.6525 -22.3275 5.9925 -23.6875 5.3125 C-24.3475 6.9625 -25.0075 8.6125 -25.6875 10.3125 C-26.80125 10.250625 -27.915 10.18875 -29.0625 10.125 C-30.856875 10.2178125 -30.856875 10.2178125 -32.6875 10.3125 C-33.6775 11.7975 -33.6775 11.7975 -34.6875 13.3125 C-35.6775 13.3125 -36.6675 13.3125 -37.6875 13.3125 C-38.0175 14.3025 -38.3475 15.2925 -38.6875 16.3125 C-40.00016518 17.66618596 -41.33317325 19.00049596 -42.6875 20.3125 C-43.0175 20.9725 -43.3475 21.6325 -43.6875 22.3125 C-44.6775 22.3125 -45.6675 22.3125 -46.6875 22.3125 C-46.6875 22.9725 -46.6875 23.6325 -46.6875 24.3125 C-47.6775 24.3125 -48.6675 24.3125 -49.6875 24.3125 C-46.97234564 18.20340269 -43.29200166 14.78494049 -37.58984375 11.5234375 C-35.65768971 10.3976482 -35.65768971 10.3976482 -34.25 8.82421875 C-25.54332262 0.40050839 -11.32884084 0.16407439 0 0 Z " fill="#E37755" transform="translate(251.6875,69.6875)"/>
<path d="M0 0 C0.495 1.98 0.495 1.98 1 4 C1.66 4 2.32 4 3 4 C3.36275969 8.31182298 3.71377194 12.62452131 4.0625 16.9375 C4.16626953 18.16919922 4.27003906 19.40089844 4.37695312 20.66992188 C4.47041016 21.83974609 4.56386719 23.00957031 4.66015625 24.21484375 C4.79369507 25.84087524 4.79369507 25.84087524 4.92993164 27.49975586 C4.9530542 28.32483643 4.97617676 29.14991699 5 30 C4 31 4 31 1.52598572 31.12025452 C0.42678299 31.11803391 -0.67241974 31.11581329 -1.80493164 31.11352539 C-3.66674828 31.11341209 -3.66674828 31.11341209 -5.56617737 31.11329651 C-6.9308374 31.10818911 -8.29549702 31.1029731 -9.66015625 31.09765625 C-11.04878183 31.095792 -12.43740807 31.09436813 -13.82603455 31.09336853 C-17.48721115 31.08954387 -21.1483483 31.07971403 -24.80950928 31.06866455 C-28.54292263 31.05844932 -32.27634234 31.05387067 -36.00976562 31.04882812 C-43.33986177 31.03809171 -50.66992536 31.02101591 -58 31 C-58 30.34 -58 29.68 -58 29 C-50.48955919 28.97683535 -42.97912207 28.95906384 -35.46865368 28.94818783 C-31.98128689 28.94296804 -28.49394453 28.93588676 -25.0065918 28.92456055 C-20.99788172 28.91162246 -16.98919733 28.90676431 -12.98046875 28.90234375 C-11.72727341 28.89718246 -10.47407806 28.89202118 -9.1829071 28.88670349 C-7.44144157 28.88659019 -7.44144157 28.88659019 -5.66479492 28.88647461 C-4.64109299 28.884254 -3.61739105 28.88203339 -2.56266785 28.87974548 C0 29 0 29 3 30 C2.71166489 27.58289288 2.42016559 25.16627721 2.125 22.75 C1.99291138 21.6669458 1.99291138 21.6669458 1.8581543 20.56201172 C1.17473677 15.09104592 0.29559617 9.67602584 -0.73046875 4.2578125 C-1 2 -1 2 0 0 Z " fill="#DD8469" transform="translate(300,144)"/>
<path d="M0 0 C1.65 0 3.3 0 5 0 C0.72885314 4.4652899 -3.08165343 4.30267196 -9.0625 4.5625 C-10.00174316 4.6049585 -10.94098633 4.64741699 -11.90869141 4.69116211 C-26.26225758 5.25814052 -40.63839833 5.08503408 -55 5 C-55 4.34 -55 3.68 -55 3 C-52.47255912 1.73627956 -50.73619692 1.87977205 -47.90771484 1.88647461 C-46.31629166 1.88658791 -46.31629166 1.88658791 -44.69271851 1.88670349 C-43.54373077 1.89186478 -42.39474304 1.89702606 -41.2109375 1.90234375 C-40.03737701 1.9037587 -38.86381653 1.90517365 -37.6546936 1.90663147 C-33.89477015 1.91224311 -30.13490555 1.92479762 -26.375 1.9375 C-23.83073002 1.9425135 -21.28645912 1.94707667 -18.7421875 1.95117188 C-12.49477147 1.96221632 -6.24738994 1.97896582 0 2 C0 1.34 0 0.68 0 0 Z " fill="#DE7453" transform="translate(372,443)"/>
<path d="M0 0 C12.75493046 1.63032946 12.75493046 1.63032946 16.875 3.5625 C22.86805141 6.31930365 29.32541342 6.18187373 35.8125 6.1875 C36.9562207 6.20586914 36.9562207 6.20586914 38.12304688 6.22460938 C40.08345454 6.2298094 42.04344383 6.1229359 44 6 C44.66 5.34 45.32 4.68 46 4 C48.625 4.375 48.625 4.375 51 5 C51 4.34 51 3.68 51 3 C53.64 3 56.28 3 59 3 C55.55172214 7.46247723 49.75192221 7.9720726 44.4765625 8.66796875 C42.86009277 8.84772228 41.24286827 9.02080271 39.625 9.1875 C38.82578125 9.28224609 38.0265625 9.37699219 37.203125 9.47460938 C28.64554437 10.38160214 21.34838471 9.39357432 13.25 6.5625 C12.61707031 6.34529297 11.98414063 6.12808594 11.33203125 5.90429688 C9.54856481 5.28694311 7.77395915 4.6441639 6 4 C5.04609375 3.65839844 4.0921875 3.31679688 3.109375 2.96484375 C1 2 1 2 0 0 Z " fill="#D86F51" transform="translate(219,374)"/>
<path d="M0 0 C1.95703125 1.33984375 1.95703125 1.33984375 4 4 C4.63575446 7.50921234 4.65144514 11.00268353 4.6875 14.5625 C4.72960364 16.45971558 4.77503117 18.35686111 4.82421875 20.25390625 C4.83541748 21.09252197 4.84661621 21.9311377 4.8581543 22.79516602 C4.91739184 25.17662341 4.91739184 25.17662341 6 28 C6.08397157 30.35680213 6.10728187 32.71594081 6.09765625 35.07421875 C6.0962413 35.7580513 6.09482635 36.44188385 6.09336853 37.1464386 C6.08777876 39.32683722 6.07522822 41.50713251 6.0625 43.6875 C6.05748367 45.16731622 6.052921 46.64713406 6.04882812 48.12695312 C6.03781271 51.75133557 6.02055512 55.3756577 6 59 C3.77798714 55.66698072 3.79897405 54.78852146 3.9375 50.9375 C4.00222362 47.38694703 3.96674738 43.96547717 3.5625 40.4375 C3.01323187 35.61012936 2.74815157 30.78755579 2.5 25.9375 C2.18609534 19.92293922 1.77116781 13.97655056 1 8 C0.81215278 6.47920951 0.62464433 4.95837714 0.4375 3.4375 C0.293125 2.303125 0.14875 1.16875 0 0 Z " fill="#E17F60" transform="translate(83,225)"/>
<path d="M0 0 C0.33 0.66 0.66 1.32 1 2 C1.66 2 2.32 2 3 2 C4.28080392 5.84241177 3.30805584 7.22117203 2 11 C1.62468554 13.32694964 1.28082798 15.65976685 1 18 C1.66 18.33 2.32 18.66 3 19 C-2.14089313 20.85072153 -4.95531271 21.21474076 -10 19 C-7 18 -7 18 -3 18 C-2.67 15.69 -2.34 13.38 -2 11 C-2.5775 10.65066406 -3.155 10.30132812 -3.75 9.94140625 C-4.4925 9.48636719 -5.235 9.03132812 -6 8.5625 C-6.7425 8.11003906 -7.485 7.65757812 -8.25 7.19140625 C-8.8275 6.79824219 -9.405 6.40507812 -10 6 C-10 5.67 -10 5.34 -10 5 C-7.69 5 -5.38 5 -3 5 C-2.690625 4.360625 -2.38125 3.72125 -2.0625 3.0625 C-1 1 -1 1 0 0 Z " fill="#EB592E" transform="translate(299,224)"/>
<path d="M0 0 C0.66 0.33 1.32 0.66 2 1 C1.90912109 2.03294189 1.81824219 3.06588379 1.72460938 4.13012695 C1.38436931 8.01188164 1.05043007 11.89415831 0.71826172 15.77661133 C0.57443642 17.44765543 0.42896828 19.11855907 0.28173828 20.78930664 C-0.84780753 33.3522822 -0.84780753 33.3522822 -0.85742188 45.95776367 C-1 48 -1 48 -3 51 C-3.95278997 48.14163009 -4.12871126 46.3335544 -4.1328125 43.3671875 C-4.13410156 42.47902344 -4.13539063 41.59085937 -4.13671875 40.67578125 C-4.13285156 39.75152344 -4.12898438 38.82726562 -4.125 37.875 C-4.12886719 36.94300781 -4.13273437 36.01101563 -4.13671875 35.05078125 C-4.13542969 34.16519531 -4.13414062 33.27960938 -4.1328125 32.3671875 C-4.13168457 31.55362793 -4.13055664 30.74006836 -4.12939453 29.90185547 C-4 28 -4 28 -3 27 C-2.81065133 24.92017015 -2.67503794 22.83539693 -2.5625 20.75 C-2.11686138 13.74916102 -1.18241216 6.91079728 0 0 Z " fill="#E07657" transform="translate(415,221)"/>
<path d="M0 0 C4.29557635 0.6711838 10.80437318 1.80437318 14 5 C15.69428307 5.14530987 17.39410742 5.22716523 19.09375 5.28125 C20.63869141 5.33732422 20.63869141 5.33732422 22.21484375 5.39453125 C23.29894531 5.42933594 24.38304687 5.46414063 25.5 5.5 C27.63556094 5.56856141 29.77099476 5.64125012 31.90625 5.71875 C32.85822266 5.74904297 33.81019531 5.77933594 34.79101562 5.81054688 C37 6 37 6 38 7 C40.32817964 7.36760731 42.6618385 7.70241581 45 8 C45 8.33 45 8.66 45 9 C41.0208966 9.05868218 37.04190647 9.0938239 33.0625 9.125 C31.94552734 9.14175781 30.82855469 9.15851563 29.67773438 9.17578125 C20.51296812 9.22953354 12.97096368 8.55271303 4.9375 3.875 C3.99777344 3.33617187 3.05804688 2.79734375 2.08984375 2.2421875 C1.40019531 1.83226562 0.71054688 1.42234375 0 1 C0 0.67 0 0.34 0 0 Z " fill="#E18366" transform="translate(113,439)"/>
<path d="M0 0 C0.99 0 1.98 0 3 0 C3 0.66 3 1.32 3 2 C3.66 2 4.32 2 5 2 C11.67070346 10.13385305 15.0058756 19.43830618 14 30 C13 32.875 13 32.875 12 35 C11.67 35 11.34 35 11 35 C11 28.4 11 21.8 11 15 C9.68 14.34 8.36 13.68 7 13 C5.875 10.5 5.875 10.5 5 8 C4.34 7.34 3.68 6.68 3 6 C3 5.34 3 4.68 3 4 C2.01 3.34 1.02 2.68 0 2 C0 1.34 0 0.68 0 0 Z " fill="#E47352" transform="translate(284,326)"/>
<path d="M0 0 C1.25393555 0.14985352 1.25393555 0.14985352 2.53320312 0.30273438 C4.58548523 0.54900823 6.63662019 0.80480898 8.6875 1.0625 C9.1825 2.5475 9.1825 2.5475 9.6875 4.0625 C7.0475 4.3925 4.4075 4.7225 1.6875 5.0625 C1.6875 4.4025 1.6875 3.7425 1.6875 3.0625 C-1.49992115 3.00384965 -4.68720118 2.96868741 -7.875 2.9375 C-8.77025391 2.92074219 -9.66550781 2.90398437 -10.58789062 2.88671875 C-15.88694322 2.84789785 -20.35868243 3.09659605 -25.3125 5.0625 C-26.3025 6.5475 -26.3025 6.5475 -27.3125 8.0625 C-28.9625 7.7325 -30.6125 7.4025 -32.3125 7.0625 C-30.40135139 3.24020279 -25.18739857 2.35987345 -21.3125 1.0625 C-17.5 0.375 -17.5 0.375 -14.3125 0.0625 C-13.61382812 -0.12828125 -12.91515625 -0.3190625 -12.1953125 -0.515625 C-8.0361839 -1.12427797 -4.15001201 -0.52734959 0 0 Z " fill="#E17C61" transform="translate(259.3125,230.9375)"/>
<path d="M0 0 C0.80824219 -0.020625 1.61648437 -0.04125 2.44921875 -0.0625 C10.54205175 -0.11429413 17.17221165 2.21650466 24.3125 5.9375 C25.15941406 6.37449219 26.00632812 6.81148438 26.87890625 7.26171875 C27.80509766 7.75091797 27.80509766 7.75091797 28.75 8.25 C28.75 8.58 28.75 8.91 28.75 9.25 C27.1 9.25 25.45 9.25 23.75 9.25 C23.75 8.59 23.75 7.93 23.75 7.25 C22.76 7.25 21.77 7.25 20.75 7.25 C20.75 6.59 20.75 5.93 20.75 5.25 C12.01840395 3.94954952 3.5274912 3.09834571 -5.3125 3.1875 C-6.6109082 3.19426758 -6.6109082 3.19426758 -7.93554688 3.20117188 C-10.04039539 3.21280087 -12.14520758 3.23072927 -14.25 3.25 C-14.25 2.59 -14.25 1.93 -14.25 1.25 C-9.50728747 0.05468221 -4.85951338 0.03041949 0 0 Z " fill="#E17F61" transform="translate(251.25,69.75)"/>
<path d="M0 0 C0.33 0 0.66 0 1 0 C1 1.98 1 3.96 1 6 C1.66 6 2.32 6 3 6 C3.01981934 6.68626465 3.03963867 7.3725293 3.06005859 8.07958984 C3.15510945 11.17845779 3.26486847 14.27663294 3.375 17.375 C3.4059375 18.45523437 3.436875 19.53546875 3.46875 20.6484375 C3.50742188 21.6796875 3.54609375 22.7109375 3.5859375 23.7734375 C3.6173584 24.72653809 3.6487793 25.67963867 3.68115234 26.66162109 C3.78555796 29.18895176 3.78555796 29.18895176 6 31 C6.125 34.125 6.125 34.125 6 37 C5.01 37 4.02 37 3 37 C1.26580576 28.77289996 -0.32920654 20.9312185 -0.03515625 12.48046875 C0.00155272 9.89044723 -0.23597363 7.44286788 -0.5625 4.875 C-0.706875 3.59625 -0.85125 2.3175 -1 1 C-0.67 0.67 -0.34 0.34 0 0 Z " fill="#DF7D5D" transform="translate(96,382)"/>
<path d="M0 0 C0.495 0.99 0.495 0.99 1 2 C-1 5 -1 5 -4.55859375 6.1796875 C-11.95135573 7.61054466 -19.56578499 7.20992592 -27.0625 7.125 C-28.61132234 7.11495008 -30.16015099 7.10582779 -31.70898438 7.09765625 C-35.47281428 7.07580207 -39.23633623 7.04138343 -43 7 C-43.33 6.01 -43.66 5.02 -44 4 C-43.46012451 4.16226074 -42.92024902 4.32452148 -42.36401367 4.49169922 C-39.58023954 5.09025522 -37.023631 5.12966347 -34.17578125 5.1328125 C-32.50999023 5.13474609 -32.50999023 5.13474609 -30.81054688 5.13671875 C-29.65619141 5.13285156 -28.50183594 5.12898438 -27.3125 5.125 C-26.14654297 5.12886719 -24.98058594 5.13273437 -23.77929688 5.13671875 C-22.67263672 5.13542969 -21.56597656 5.13414062 -20.42578125 5.1328125 C-19.40911377 5.13168457 -18.39244629 5.13055664 -17.3449707 5.12939453 C-15.04143361 5.26379165 -15.04143361 5.26379165 -14 4 C-11.52488197 3.46349901 -9.03718816 3.03607886 -6.54296875 2.59765625 C-4.09619002 2.02260687 -2.18682073 1.21829873 0 0 Z " fill="#E78D74" transform="translate(282,388)"/>
<path d="M0 0 C0.33 0 0.66 0 1 0 C1.06058594 0.91523438 1.12117188 1.83046875 1.18359375 2.7734375 C1.26738281 3.96195313 1.35117188 5.15046875 1.4375 6.375 C1.51871094 7.55835938 1.59992188 8.74171875 1.68359375 9.9609375 C1.81084936 12.91518901 1.81084936 12.91518901 3 15 C3.08308638 16.37548156 3.10736016 17.75485796 3.09765625 19.1328125 C3.09282227 20.34130859 3.09282227 20.34130859 3.08789062 21.57421875 C3.07951172 22.41597656 3.07113281 23.25773437 3.0625 24.125 C3.05798828 24.97449219 3.05347656 25.82398438 3.04882812 26.69921875 C3.03702874 28.79950909 3.01909306 30.8997633 3 33 C2.01 33.495 2.01 33.495 1 34 C0.63406663 29.45920128 0.28432548 24.91729496 -0.0625 20.375 C-0.16626953 19.08980469 -0.27003906 17.80460937 -0.37695312 16.48046875 C-0.47041016 15.23652344 -0.56386719 13.99257812 -0.66015625 12.7109375 C-0.74918213 11.56931152 -0.83820801 10.42768555 -0.92993164 9.25146484 C-0.99953614 6.02152526 -0.63827985 3.16000842 0 0 Z M4 6 C4.33 6.66 4.66 7.32 5 8 C4.67 8.66 4.34 9.32 4 10 C3.34 10 2.68 10 2 10 C2.66 8.68 3.32 7.36 4 6 Z " fill="#E67D60" transform="translate(82,183)"/>
<path d="M0 0 C0.66 0 1.32 0 2 0 C1.09574874 5.12409049 -0.09507755 9.64261632 -3 14 C-3.24055468 16.05709596 -3.24055468 16.05709596 -3.125 18.1875 C-3.08375 19.445625 -3.0425 20.70375 -3 22 C-4.65 22.33 -6.3 22.66 -8 23 C-8 24.98 -8 26.96 -8 29 C-8.66 28.34 -9.32 27.68 -10 27 C-9.625 23.875 -9.625 23.875 -9 21 C-8.34 21 -7.68 21 -7 21 C-6.87882813 20.22914062 -6.75765625 19.45828125 -6.6328125 18.6640625 C-6.46523437 17.66117188 -6.29765625 16.65828125 -6.125 15.625 C-5.96257812 14.62726563 -5.80015625 13.62953125 -5.6328125 12.6015625 C-5 10 -5 10 -3 8 C-2.3574765 5.93125966 -2.3574765 5.93125966 -2 4 C-1.34 4 -0.68 4 0 4 C0 2.68 0 1.36 0 0 Z " fill="#E67556" transform="translate(193,104)"/>
<path d="M0 0 C0.66 0.66 1.32 1.32 2 2 C1.49339844 3.23363281 1.49339844 3.23363281 0.9765625 4.4921875 C-1.74400927 11.30147985 -3.82885524 17.76945409 -5 25 C-5.51901122 27.77922139 -6.10388266 30.31164797 -7 33 C-7.03874921 34.66621616 -7.0450286 36.33394172 -7 38 C-8.485 38.495 -8.485 38.495 -10 39 C-9.67 34.05 -9.34 29.1 -9 24 C-8.01 24 -7.02 24 -6 24 C-6.061875 22.576875 -6.061875 22.576875 -6.125 21.125 C-6.14484508 16.29272342 -5.05774196 11.69372996 -4 7 C-3.01 7 -2.02 7 -1 7 C-1.020625 6.030625 -1.04125 5.06125 -1.0625 4.0625 C-1 1 -1 1 0 0 Z " fill="#DF785C" transform="translate(206,120)"/>
<path d="M0 0 C0.66 0 1.32 0 2 0 C2.1963696 2.37456165 2.38231294 4.74920019 2.5625 7.125 C2.61857422 7.79015625 2.67464844 8.4553125 2.73242188 9.140625 C3.03752682 13.29005225 2.77442535 16.92559796 2 21 C2.020625 22.299375 2.04125 23.59875 2.0625 24.9375 C2.16674559 31.67871507 0.98165473 38.34753623 0 45 C-0.33 45 -0.66 45 -1 45 C-0.67 30.15 -0.34 15.3 0 0 Z " fill="#D87254" transform="translate(407,304)"/>
<path d="M0 0 C0.66 0 1.32 0 2 0 C2 12.54 2 25.08 2 38 C1.67 38 1.34 38 1 38 C0.93941406 37.06800781 0.87882812 36.13601563 0.81640625 35.17578125 C0.73261719 33.90089844 0.64882812 32.62601562 0.5625 31.3125 C0.49699951 30.29506714 0.49699951 30.29506714 0.43017578 29.25708008 C0.14408074 24.89285802 -0.22479249 20.54300514 -0.625 16.1875 C-1.06869753 10.67199838 -0.80231261 5.46806899 0 0 Z " fill="#E17F66" transform="translate(91,304)"/>
<path d="M0 0 C12.75493046 1.63032946 12.75493046 1.63032946 16.875 3.5625 C20.2860553 5.13158544 23.2826536 5.62067894 27 6 C25.5 7.625 25.5 7.625 23 9 C20.12942871 8.51346249 17.73207232 7.91389743 15 7 C14.2265625 6.75507813 13.453125 6.51015625 12.65625 6.2578125 C4.36246418 3.57615509 4.36246418 3.57615509 1 2 C0.67 1.34 0.34 0.68 0 0 Z " fill="#E17357" transform="translate(219,374)"/>
<path d="M0 0 C1.65 0 3.3 0 5 0 C0.31885585 4.89392343 -4.1152722 4.33867303 -10.625 4.625 C-11.59824219 4.6765625 -12.57148438 4.728125 -13.57421875 4.78125 C-19.20271215 5.03881228 -24.4339588 4.88580703 -30 4 C-30 3.67 -30 3.34 -30 3 C-15.15 2.505 -15.15 2.505 0 2 C0 1.34 0 0.68 0 0 Z " fill="#CF7A5E" transform="translate(372,443)"/>
<path d="M0 0 C0.33 1.32 0.66 2.64 1 4 C1.66 4 2.32 4 3 4 C3.66 12.58 4.32 21.16 5 30 C4.34 30 3.68 30 3 30 C2.81824219 28.47632813 2.81824219 28.47632813 2.6328125 26.921875 C2.46418592 25.53117173 2.29486595 24.14055243 2.125 22.75 C2.03694092 22.02796387 1.94888184 21.30592773 1.8581543 20.56201172 C1.17473677 15.09104592 0.29559617 9.67602584 -0.73046875 4.2578125 C-1 2 -1 2 0 0 Z " fill="#E07E61" transform="translate(300,144)"/>
<path d="M0 0 C0.66 0 1.32 0 2 0 C2 0.66 2 1.32 2 2 C2.57363281 2.09539062 3.14726562 2.19078125 3.73828125 2.2890625 C6.5026308 3.15799448 8.02828523 4.45479774 10.1875 6.375 C10.88230469 6.98085937 11.57710938 7.58671875 12.29296875 8.2109375 C14 10 14 10 15 13 C14.01 13.495 14.01 13.495 13 14 C13 13.34 13 12.68 13 12 C10.69 11.67 8.38 11.34 6 11 C6 10.34 6 9.68 6 9 C6.99 8.67 7.98 8.34 9 8 C8.01 8 7.02 8 6 8 C6 7.34 6 6.68 6 6 C5.071875 5.9071875 5.071875 5.9071875 4.125 5.8125 C2 5 2 5 0.75 2.4375 C0.5025 1.633125 0.255 0.82875 0 0 Z " fill="#E46E4E" transform="translate(280,79)"/>
<path d="M0 0 C0.99 0.33 1.98 0.66 3 1 C2.01 1.33 1.02 1.66 0 2 C0.33 2.66 0.66 3.32 1 4 C1.99 4.33 2.98 4.66 4 5 C4.3721042 6.32303717 4.70630173 7.65737935 5 9 C5.66 9.33 6.32 9.66 7 10 C6.01 10 5.02 10 4 10 C3.5875 9.525625 3.175 9.05125 2.75 8.5625 C0.12475166 6.21852827 -2.58502942 6.32216704 -6 6 C-6.66 7.32 -7.32 8.64 -8 10 C-8.66 8.02 -9.32 6.04 -10 4 C-8.63875 3.8453125 -8.63875 3.8453125 -7.25 3.6875 C-3.92145123 2.98338391 -2.63311138 1.99753277 0 0 Z " fill="#E87F62" transform="translate(204,360)"/>
<path d="M0 0 C13.67809657 -0.54793562 13.67809657 -0.54793562 19 3 C19.78375 3.391875 20.5675 3.78375 21.375 4.1875 C21.91125 4.455625 22.4475 4.72375 23 5 C19.93109813 6.53445094 17.29905734 5.54984289 14 5 C14 4.34 14 3.68 14 3 C9.05 3 4.1 3 -1 3 C-0.67 2.01 -0.34 1.02 0 0 Z " fill="#DC7254" transform="translate(244,87)"/>
<path d="M0 0 C2.68656601 2.20317005 3.89617725 3.35049382 4.45410156 6.84082031 C4.4331543 7.90913086 4.41220703 8.97744141 4.390625 10.078125 C4.37773438 11.23828125 4.36484375 12.3984375 4.3515625 13.59375 C4.31804687 14.8003125 4.28453125 16.006875 4.25 17.25 C4.23195313 18.47203125 4.21390625 19.6940625 4.1953125 20.953125 C4.148181 23.96954078 4.08239413 26.98437491 4 30 C3.67 30 3.34 30 3 30 C1.98181818 20.96363636 1.98181818 20.96363636 2.0625 16.6875 C1.96688051 11.04595 0.93571924 5.555833 0 0 Z " fill="#E89279" transform="translate(83,225)"/>
<path d="M0 0 C1.32 0 2.64 0 4 0 C4.33 0.66 4.66 1.32 5 2 C7.31 1.34 9.62 0.68 12 0 C13 3 13 3 13 6 C13.66 7.32 14.32 8.64 15 10 C11.04 8.02 7.08 6.04 3 4 C3 3.34 3 2.68 3 2 C2.01 1.67 1.02 1.34 0 1 C0 0.67 0 0.34 0 0 Z " fill="#E76342" transform="translate(224,282)"/>
<path d="M0 0 C0 0.66 0 1.32 0 2 C1.2375 2.1546875 1.2375 2.1546875 2.5 2.3125 C6.59289012 3.11646056 10.12540225 4.46352158 14 6 C11.7448078 8.2551922 9.9952413 8.97723468 7 10 C6.01 10 5.02 10 4 10 C4 9.34 4 8.68 4 8 C4.99 8 5.98 8 7 8 C7 7.34 7 6.68 7 6 C1.52225234 4.41678933 1.52225234 4.41678933 -4 3 C-4 2.34 -4 1.68 -4 1 C-2 0 -2 0 0 0 Z " fill="#E67659" transform="translate(252,308)"/>
<path d="M0 0 C0.66 0.33 1.32 0.66 2 1 C1.6900234 4.18775058 1.37655764 7.3751491 1.0625 10.5625 C0.97548828 11.45775391 0.88847656 12.35300781 0.79882812 13.27539062 C0.31123251 18.20552409 -0.2542319 23.10211759 -1 28 C-1.33 28 -1.66 28 -2 28 C-2.23889655 18.40432207 -1.78831859 9.46850826 0 0 Z " fill="#E0876E" transform="translate(415,221)"/>
<path d="M0 0 C0.87269531 -0.01417969 1.74539062 -0.02835938 2.64453125 -0.04296875 C5.29669085 0.19739594 6.91214999 0.84562691 9.1875 2.1875 C7.59421875 2.35185547 7.59421875 2.35185547 5.96875 2.51953125 C-1.3556044 3.32431027 -8.0441805 4.08535356 -14.8125 7.1875 C-14.8125 6.1975 -14.8125 5.2075 -14.8125 4.1875 C-14.17441406 3.98253906 -13.53632813 3.77757812 -12.87890625 3.56640625 C-12.05261719 3.29699219 -11.22632813 3.02757812 -10.375 2.75 C-9.55128906 2.48316406 -8.72757813 2.21632812 -7.87890625 1.94140625 C-2.61001343 0.01910698 -2.61001343 0.01910698 0 0 Z " fill="#E18162" transform="translate(240.8125,218.8125)"/>
<path d="M0 0 C1.65 0 3.3 0 5 0 C5.33 1.32 5.66 2.64 6 4 C6.99 4 7.98 4 9 4 C9 5.65 9 7.3 9 9 C6.29561004 8.63594751 5.25593617 8.31857318 3.515625 6.15234375 C2.88914062 5.05599609 2.88914062 5.05599609 2.25 3.9375 C1.82203125 3.20402344 1.3940625 2.47054687 0.953125 1.71484375 C0.63859375 1.14894531 0.3240625 0.58304687 0 0 Z " fill="#E5714B" transform="translate(277,100)"/>
<path d="M0 0 C2.64 0 5.28 0 8 0 C5.33350656 3.45075621 2.12700732 4.04194473 -2 5 C-2.99 5 -3.98 5 -5 5 C-5 4.34 -5 3.68 -5 3 C-5.66 2.67 -6.32 2.34 -7 2 C-4.3333581 0.66667905 -2.83319697 1.32897967 0 2 C0 1.34 0 0.68 0 0 Z " fill="#E57A58" transform="translate(270,377)"/>
<path d="M0 0 C0.99 0 1.98 0 3 0 C2.68383092 6.16529701 -0.49215061 10.17268433 -4 15 C-5 12 -5 12 -4 9 C-3.34 9 -2.68 9 -2 9 C-2 8.01 -2 7.02 -2 6 C-1.34 6 -0.68 6 0 6 C0 4.02 0 2.04 0 0 Z " fill="#E2876B" transform="translate(397,417)"/>
<path d="M0 0 C0.66 0 1.32 0 2 0 C1.09574874 5.12409049 -0.09507755 9.64261632 -3 14 C-3.66 14 -4.32 14 -5 14 C-4.39009109 10.44219804 -3.4216319 7.3171411 -2 4 C-1.34 4 -0.68 4 0 4 C0 2.68 0 1.36 0 0 Z " fill="#E28064" transform="translate(193,104)"/>
<path d="M0 0 C3.33333333 3.33333333 6.66666667 6.66666667 10 10 C7.03 10 4.06 10 1 10 C1.33 8.02 1.66 6.04 2 4 C1.34 4 0.68 4 0 4 C0 2.68 0 1.36 0 0 Z " fill="#E6785A" transform="translate(208,284)"/>
<path d="M0 0 C1.65 0 3.3 0 5 0 C4.67 1.65 4.34 3.3 4 5 C4.66 5 5.32 5 6 5 C6.28875 5.78375 6.5775 6.5675 6.875 7.375 C7.84912254 10.09671632 7.84912254 10.09671632 10 12 C9.01 12.495 9.01 12.495 8 13 C4.42497033 10.73931948 3.18525079 8.75943968 1.75 4.8125 C1.24726563 3.46091797 1.24726563 3.46091797 0.734375 2.08203125 C0.49203125 1.39496094 0.2496875 0.70789063 0 0 Z " fill="#E78A71" transform="translate(213,267)"/>
<path d="M0 0 C3.90559061 1.26667804 6.06060687 2.31515306 8 6 C8.5287884 8.67987908 8.77237292 11.26847502 9 14 C8.67 13.34 8.34 12.68 8 12 C7.34 12 6.68 12 6 12 C6 10.02 6 8.04 6 6 C5.01 6 4.02 6 3 6 C3 5.01 3 4.02 3 3 C2.34 3 1.68 3 1 3 C0.67 2.01 0.34 1.02 0 0 Z " fill="#DF6C4F" transform="translate(409,176)"/>
<path d="M0 0 C0.33 1.32 0.66 2.64 1 4 C2.32 4.33 3.64 4.66 5 5 C5 5.66 5 6.32 5 7 C6.45833358 8.62514468 6.45833358 8.62514468 8 10 C7.34 10.66 6.68 11.32 6 12 C2.62925682 9.79158206 0.80337439 7.60674878 -1 4 C-1 1 -1 1 0 0 Z " fill="#E28264" transform="translate(106,427)"/>
<path d="M0 0 C1.39160413 4.17481239 0.36588972 6.90233084 -1 11 C-1.03874921 12.66621616 -1.0450286 14.33394172 -1 16 C-1.99 16.33 -2.98 16.66 -4 17 C-3.67 12.05 -3.34 7.1 -3 2 C-2.01 2 -1.02 2 0 2 C0 1.34 0 0.68 0 0 Z " fill="#E58F74" transform="translate(200,142)"/>
<path d="M0 0 C1.485 0.99 1.485 0.99 3 2 C3.11076564 4.75117904 3.04958602 7.21460301 2.8125 9.9375 C2.76802734 10.66646484 2.72355469 11.39542969 2.67773438 12.14648438 C2.4029883 15.84707658 2.09360533 17.859592 0 21 C0 14.07 0 7.14 0 0 Z " fill="#E89277" transform="translate(308,335)"/>
<path d="M0 0 C0.33 0 0.66 0 1 0 C1.22384382 1.72722728 1.42839969 3.45696007 1.625 5.1875 C1.74101562 6.15042969 1.85703125 7.11335938 1.9765625 8.10546875 C2.00194942 11.24075323 1.34359283 13.19486535 0 16 C-0.33 16 -0.66 16 -1 16 C-1.02712153 14.083412 -1.04645097 12.1667127 -1.0625 10.25 C-1.07410156 9.18265625 -1.08570313 8.1153125 -1.09765625 7.015625 C-1.01510087 4.46631499 -0.74617558 2.42066409 0 0 Z " fill="#DD8265" transform="translate(296,345)"/>
<path d="M0 0 C0.66 0.33 1.32 0.66 2 1 C1.01 2.485 1.01 2.485 0 4 C-2 4.33333333 -4 4.66666667 -6 5 C-6.99 6.485 -6.99 6.485 -8 8 C-9.65 7.67 -11.3 7.34 -13 7 C-11.59654131 4.19308262 -9.95890933 4.03040625 -7.0625 2.9375 C-3.47975239 1.58576094 -3.47975239 1.58576094 0 0 Z " fill="#EA8F75" transform="translate(240,231)"/>
<path d="M0 0 C5.94 0 11.88 0 18 0 C18 0.99 18 1.98 18 3 C5.33029613 2.03644647 5.33029613 2.03644647 0 1 C0 0.67 0 0.34 0 0 Z " fill="#E79079" transform="translate(250,219)"/>
<path d="M0 0 C3 1 3 1 4 3 C5.32 2.67 6.64 2.34 8 2 C8.33 2.99 8.66 3.98 9 5 C7.02 5.66 5.04 6.32 3 7 C0 2.25 0 2.25 0 0 Z " fill="#E56E4A" transform="translate(286,111)"/>
<path d="M0 0 C3.3125 0.625 3.3125 0.625 7 2 C8.9375 5.125 8.9375 5.125 10 8 C5.67008153 8 4.08622163 5.88494631 1 3 C0.67 2.01 0.34 1.02 0 0 Z " fill="#E37753" transform="translate(290,312)"/>
<path d="M0 0 C0.99 0 1.98 0 3 0 C3 0.66 3 1.32 3 2 C3.66 2 4.32 2 5 2 C6.32 4.31 7.64 6.62 9 9 C8.01 9.495 8.01 9.495 7 10 C7 9.34 7 8.68 7 8 C5.68 7.34 4.36 6.68 3 6 C3 5.34 3 4.68 3 4 C2.01 3.34 1.02 2.68 0 2 C0 1.34 0 0.68 0 0 Z " fill="#E48366" transform="translate(284,326)"/>
<path d="M0 0 C4.10958767 1.45044271 7.43258745 3.51110752 11 6 C10.67 6.66 10.34 7.32 10 8 C8.35 7.67 6.7 7.34 5 7 C5 6.01 5 5.02 5 4 C4.360625 3.896875 3.72125 3.79375 3.0625 3.6875 C2.381875 3.460625 1.70125 3.23375 1 3 C0.67 2.01 0.34 1.02 0 0 Z " fill="#E4896D" transform="translate(219,295)"/>
<path d="M0 0 C2 3.75 2 3.75 2 6 C2.66 6.33 3.32 6.66 4 7 C-1.14089313 8.85072153 -3.95531271 9.21474076 -9 7 C-6 6 -6 6 -2 6 C-1.34 4.02 -0.68 2.04 0 0 Z " fill="#EE9278" transform="translate(298,236)"/>
<path d="M0 0 C1.32 0.33 2.64 0.66 4 1 C3.34 1 2.68 1 2 1 C1.896875 1.53625 1.79375 2.0725 1.6875 2.625 C0.81907303 5.62502044 -0.55620296 8.2379535 -2 11 C-2.66 9.68 -3.32 8.36 -4 7 C-3.34 7 -2.68 7 -2 7 C-2 5.68 -2 4.36 -2 3 C-1.34 3 -0.68 3 0 3 C0 2.01 0 1.02 0 0 Z " fill="#E88C68" transform="translate(207,238)"/>
<path d="M0 0 C3.05906926 2.51066469 3.75191278 4.90059933 4.6875 8.6875 C5.06455078 10.17830078 5.06455078 10.17830078 5.44921875 11.69921875 C5.63097656 12.45847656 5.81273437 13.21773437 6 14 C5.01 14 4.02 14 3 14 C2.49713066 12.0424015 1.9977901 10.08389623 1.5 8.125 C1.2215625 7.03445312 0.943125 5.94390625 0.65625 4.8203125 C0 2 0 2 0 0 Z " fill="#DC7051" transform="translate(314,130)"/>
<path d="M0 0 C0.66 0.33 1.32 0.66 2 1 C2.59355614 3.64860427 2.74209269 6.29197322 3 9 C4.32 9.33 5.64 9.66 7 10 C6.34 10 5.68 10 5 10 C5 10.99 5 11.98 5 13 C4.34 13 3.68 13 3 13 C2.30329584 11.21189234 1.61788811 9.41937948 0.9375 7.625 C0.55464844 6.62726563 0.17179687 5.62953125 -0.22265625 4.6015625 C-1 2 -1 2 0 0 Z " fill="#E37355" transform="translate(292,119)"/>
<path d="M0 0 C0.66 0.33 1.32 0.66 2 1 C0.6875 3.5 0.6875 3.5 -1 6 C-1.99 6 -2.98 6 -4 6 C-4 6.66 -4 7.32 -4 8 C-4.99 8 -5.98 8 -7 8 C-5.50902342 4.2047869 -3.24299151 2.38957269 0 0 Z " fill="#E46F4C" transform="translate(209,86)"/>
<path d="M0 0 C0.66 0.33 1.32 0.66 2 1 C1.40072174 4.35595828 0.15377564 6.37801226 -2 9 C-3.32 8.34 -4.64 7.68 -6 7 C-4.02 4.69 -2.04 2.38 0 0 Z " fill="#EA8262" transform="translate(225,238)"/>
<path d="M0 0 C0.33 0.99 0.66 1.98 1 3 C1.99 3.33 2.98 3.66 4 4 C3.67 4.99 3.34 5.98 3 7 C2.34 7 1.68 7 1 7 C0.67 8.65 0.34 10.3 0 12 C-0.99 12 -1.98 12 -3 12 C-2.690625 11.319375 -2.38125 10.63875 -2.0625 9.9375 C-0.86629351 6.63034088 -0.40994603 3.48454122 0 0 Z " fill="#E25F36" transform="translate(178,163)"/>
<path d="M0 0 C1.32 0 2.64 0 4 0 C3.39254603 4.85963179 1.27241033 8.7405518 -1 13 C-2.23701372 9.28895884 -1.42126979 8.51137242 0 5 C0.16798262 2.29113059 0.16798262 2.29113059 0 0 Z " fill="#E16C4F" transform="translate(210,107)"/>
<path d="M0 0 C1.65 0 3.3 0 5 0 C3.36587557 1.70840281 2.13093906 2.93453047 0 4 C-1.54613014 3.91348369 -3.08909387 3.75997364 -4.625 3.5625 C-5.85089844 3.40974609 -5.85089844 3.40974609 -7.1015625 3.25390625 C-7.72804688 3.17011719 -8.35453125 3.08632813 -9 3 C-9 2.67 -9 2.34 -9 2 C-6.03 2 -3.06 2 0 2 C0 1.34 0 0.68 0 0 Z " fill="#E28264" transform="translate(372,443)"/>
<path d="M0 0 C0.33 0.66 0.66 1.32 1 2 C0.0625 4.625 0.0625 4.625 -1 7 C-3.31 6.67 -5.62 6.34 -8 6 C-5.38485683 3.87961365 -2.80362384 1.86908256 0 0 Z " fill="#E37B60" transform="translate(294,382)"/>
<path d="M0 0 C4.84688192 0.78175515 9.3766367 2.39844278 14 4 C13.34 4.66 12.68 5.32 12 6 C8.375 5.625 8.375 5.625 5 5 C5 4.34 5 3.68 5 3 C4.360625 2.87625 3.72125 2.7525 3.0625 2.625 C2.381875 2.41875 1.70125 2.2125 1 2 C0.67 1.34 0.34 0.68 0 0 Z " fill="#E38260" transform="translate(253,87)"/>
<path d="M0 0 C0.66 0 1.32 0 2 0 C1.34 1.65 0.68 3.3 0 5 C-0.99 5 -1.98 5 -3 5 C-3.33 5.99 -3.66 6.98 -4 8 C-5.65 8.33 -7.3 8.66 -9 9 C-9 8.34 -9 7.68 -9 7 C-7.28515625 5.78125 -7.28515625 5.78125 -5.0625 4.5 C-1.94567974 2.81545121 -1.94567974 2.81545121 0 0 Z " fill="#E27B63" transform="translate(217,78)"/>
<path d="M0 0 C0.721875 0.45375 1.44375 0.9075 2.1875 1.375 C4.92046027 3.05070504 4.92046027 3.05070504 7.75 4.0625 C10 5 10 5 11 7 C6.91621717 6.25749403 2.98060777 5.17076699 -1 4 C-0.67 2.68 -0.34 1.36 0 0 Z " fill="#E18065" transform="translate(204,379)"/>
<path d="M0 0 C6.93 0.495 6.93 0.495 14 1 C10 4 10 4 7.9296875 3.92578125 C7.25164062 3.72339844 6.57359375 3.52101563 5.875 3.3125 C5.19179687 3.12300781 4.50859375 2.93351562 3.8046875 2.73828125 C2 2 2 2 0 0 Z " fill="#E88362" transform="translate(232,379)"/>
<path d="M0 0 C0.66 0.33 1.32 0.66 2 1 C-1.96 4.465 -1.96 4.465 -6 8 C-6.66 6.68 -7.32 5.36 -8 4 C-6.35 3.67 -4.7 3.34 -3 3 C-3 2.34 -3 1.68 -3 1 C-2.01 0.67 -1.02 0.34 0 0 Z " fill="#DC6743" transform="translate(224,97)"/>
<path d="M0 0 C1.65 1.32 3.3 2.64 5 4 C4.34 4 3.68 4 3 4 C2.67 4.66 2.34 5.32 2 6 C1.34 5.67 0.68 5.34 0 5 C0 7.31 0 9.62 0 12 C-0.33 12 -0.66 12 -1 12 C-1.02712066 10.56260487 -1.04645067 9.12506137 -1.0625 7.6875 C-1.07410156 6.88699219 -1.08570312 6.08648437 -1.09765625 5.26171875 C-1 3 -1 3 0 0 Z " fill="#F57E60" transform="translate(91,299)"/>
<path d="M0 0 C0.66 0 1.32 0 2 0 C2 3.3 2 6.6 2 10 C1.01 10 0.02 10 -1 10 C-0.67 6.7 -0.34 3.4 0 0 Z " fill="#E17D5E" transform="translate(181,135)"/>
<path d="M0 0 C2.30143236 3.45214853 2.13833854 4.23479324 1.625 8.1875 C1.51414062 9.08855469 1.40328125 9.98960937 1.2890625 10.91796875 C1.19367188 11.60503906 1.09828125 12.29210937 1 13 C0.34 12.67 -0.32 12.34 -1 12 C-0.67 8.04 -0.34 4.08 0 0 Z " fill="#E6886F" transform="translate(417,190)"/>
<path d="M0 0 C0 0.66 0 1.32 0 2 C-0.66 2 -1.32 2 -2 2 C-2 2.66 -2 3.32 -2 4 C-2.66 4 -3.32 4 -4 4 C-4 4.66 -4 5.32 -4 6 C-5.32 6.33 -6.64 6.66 -8 7 C-6.13932792 2.84926997 -4.83061881 0 0 0 Z " fill="#E7866C" transform="translate(91,176)"/>
<path d="M0 0 C1.485 0.99 1.485 0.99 3 2 C3.1875 5.125 3.1875 5.125 3 8 C2.01 8 1.02 8 0 8 C-0.38063221 5.6739143 -0.71269945 3.33944736 -1 1 C-0.67 0.67 -0.34 0.34 0 0 Z " fill="#E0704B" transform="translate(99,411)"/>
<path d="M0 0 C1.33597652 0.80814651 2.668725 1.62163181 4 2.4375 C5.11375 3.11619141 5.11375 3.11619141 6.25 3.80859375 C6.8275 4.20175781 7.405 4.59492188 8 5 C8 5.33 8 5.66 8 6 C6.02 6.33 4.04 6.66 2 7 C1.34 4.69 0.68 2.38 0 0 Z " fill="#E88E6E" transform="translate(275,318)"/>
<path d="M0 0 C1.5 1.375 1.5 1.375 3 3 C3 3.66 3 4.32 3 5 C4.32 5.33 5.64 5.66 7 6 C7 6.66 7 7.32 7 8 C6.01 8 5.02 8 4 8 C4 7.34 4 6.68 4 6 C3.01 6 2.02 6 1 6 C0.34 4.35 -0.32 2.7 -1 1 C-0.67 0.67 -0.34 0.34 0 0 Z " fill="#E58F74" transform="translate(196,371)"/>
<path d="M0 0 C0.66 0 1.32 0 2 0 C1.67 2.97 1.34 5.94 1 9 C-0.32 7.68 -1.64 6.36 -3 5 C-2.01 4.67 -1.02 4.34 0 4 C0 2.68 0 1.36 0 0 Z " fill="#E46C47" transform="translate(306,322)"/>
<path d="M0 0 C5.445 1.485 5.445 1.485 11 3 C11 3.66 11 4.32 11 5 C9.02 5 7.04 5 5 5 C5 4.34 5 3.68 5 3 C3.35 2.67 1.7 2.34 0 2 C0 1.34 0 0.68 0 0 Z " fill="#E0886D" transform="translate(236,304)"/>
<path d="M0 0 C0.99 0.33 1.98 0.66 3 1 C3 2.65 3 4.3 3 6 C-1.875 4.25 -1.875 4.25 -3 2 C-2.01 2 -1.02 2 0 2 C0 1.34 0 0.68 0 0 Z " fill="#E77B5D" transform="translate(285,306)"/>
<path d="M0 0 C1.43836751 0.11458693 2.87570966 0.24209116 4.3125 0.375 C5.51326172 0.47941406 5.51326172 0.47941406 6.73828125 0.5859375 C9 1 9 1 12 3 C12 3.66 12 4.32 12 5 C10.56068883 4.54738642 9.12361001 4.08767021 7.6875 3.625 C6.88699219 3.36976563 6.08648437 3.11453125 5.26171875 2.8515625 C3 2 3 2 0 0 Z " fill="#E17C61" transform="translate(240,292)"/>
<path d="M0 0 C7.50769231 0.61538462 7.50769231 0.61538462 10 2.5625 C10.33 3.036875 10.66 3.51125 11 4 C10.67 4.66 10.34 5.32 10 6 C6.7 4.35 3.4 2.7 0 1 C0 0.67 0 0.34 0 0 Z " fill="#DF7F5C" transform="translate(228,286)"/>
<path d="M0 0 C0.33 0 0.66 0 1 0 C1.06058594 0.68707031 1.12117188 1.37414062 1.18359375 2.08203125 C1.26738281 2.98308594 1.35117187 3.88414062 1.4375 4.8125 C1.51871094 5.70582031 1.59992188 6.59914063 1.68359375 7.51953125 C1.93489767 10.12743559 1.93489767 10.12743559 3 13 C2.34 13.99 1.68 14.98 1 16 C-0.14077657 12.57767028 -0.09815117 9.91326783 -0.0625 6.3125 C-0.05347656 5.13300781 -0.04445313 3.95351563 -0.03515625 2.73828125 C-0.02355469 1.83464844 -0.01195312 0.93101562 0 0 Z " fill="#E98A6B" transform="translate(411,256)"/>
<path d="M0 0 C3.465 1.98 3.465 1.98 7 4 C7 4.99 7 5.98 7 7 C5.68 6.67 4.36 6.34 3 6 C3 5.34 3 4.68 3 4 C2.34 4 1.68 4 1 4 C0.67 2.68 0.34 1.36 0 0 Z " fill="#E07758" transform="translate(281,237)"/>
<path d="M0 0 C-0.33 1.32 -0.66 2.64 -1 4 C-2.32 4.33 -3.64 4.66 -5 5 C-5 3.68 -5 2.36 -5 1 C-3 0 -3 0 0 0 Z " fill="#E25C2E" transform="translate(88,182)"/>
<path d="M0 0 C1.98 0 3.96 0 6 0 C6 1.32 6 2.64 6 4 C6.66 4.33 7.32 4.66 8 5 C6.68 5 5.36 5 4 5 C3.67 4.34 3.34 3.68 3 3 C2.01 3 1.02 3 0 3 C0 2.01 0 1.02 0 0 Z " fill="#EC653F" transform="translate(211,385)"/>
<path d="M0 0 C0.66 0 1.32 0 2 0 C2.268125 0.61875 2.53625 1.2375 2.8125 1.875 C3.95556848 4.2995233 3.95556848 4.2995233 7 6 C5.02 6 3.04 6 1 6 C0.67 4.02 0.34 2.04 0 0 Z " fill="#E66138" transform="translate(217,294)"/>
<path d="M0 0 C0.66 0 1.32 0 2 0 C4 2 4 2 4.125 5.625 C4.08375 6.73875 4.0425 7.8525 4 9 C3.34 9 2.68 9 2 9 C1.34 6.03 0.68 3.06 0 0 Z " fill="#E4997D" transform="translate(295,133)"/>
<path d="M0 0 C0.33 0 0.66 0 1 0 C1 3.3 1 6.6 1 10 C0.01 9.34 -0.98 8.68 -2 8 C-1.34 5.36 -0.68 2.72 0 0 Z " fill="#E98C6F" transform="translate(308,358)"/>
<path d="M0 0 C3.63 0.66 7.26 1.32 11 2 C10.01 2.99 9.02 3.98 8 5 C7.01 4.34 6.02 3.68 5 3 C3.34450469 2.61500109 1.6777567 2.27206865 0 2 C0 1.34 0 0.68 0 0 Z " fill="#E8977E" transform="translate(276,223)"/>
<path d="M0 0 C2.12508244 3.18762365 2.5020163 5.26512223 3 9 C2.01 9 1.02 9 0 9 C0 6.03 0 3.06 0 0 Z " fill="#E69273" transform="translate(311,117)"/>
<path d="M0 0 C2.97 0.495 2.97 0.495 6 1 C5.67 1.66 5.34 2.32 5 3 C1.9375 3.625 1.9375 3.625 -1 4 C-0.67 2.68 -0.34 1.36 0 0 Z " fill="#E46B4A" transform="translate(234,392)"/>
<path d="M0 0 C3.95820859 0.56545837 6.6659053 1.80902348 10 4 C9.34 4.66 8.68 5.32 8 6 C6.66402348 5.19185349 5.331275 4.37836819 4 3.5625 C3.2575 3.11003906 2.515 2.65757812 1.75 2.19140625 C1.1725 1.79824219 0.595 1.40507812 0 1 C0 0.67 0 0.34 0 0 Z " fill="#E48869" transform="translate(289,229)"/>
</svg>
